# xmcd CD database file
#
# Track frame offsets:
#	150
#	10712
#	20961
#	29522
#	39480
#	51633
#	60438
#	69853
#	81327
#	90915
#	101197
#	113805
#	122393
#	131921
#	138867
#	149803
#	161022
#	169803
#	179199
#	191105
#	202860
#	213937
#	225665
#	237473
#	248447
#	257156
#	266213
#	276298
#	289162
#	302061
#
# Disc length: 4172 seconds
#
# Revision: 2
# Processed by: cddbd v1.5.2PL0 Copyright (c) Steve Scherf et al.
# Submitted via: CDex 1.51
#
DISCID=c5104a1e
DTITLE=Piano Singalong - ZM-PS-CD-2
DYEAR=1900
DGENRE=Blues
TTITLE0=Piano Singalong - It's A Long way To Tipperary
TTITLE1=Piano Singalong - Kiss Me Goodnight Sergeant Major
TTITLE2=Piano Singalong - Knee Up Mother Brown
TTITLE3=Piano Singalong - Lily Of Laguna
TTITLE4=Piano Singalong - Love And Marriage
TTITLE5=Piano Singalong - Ma (he's making eyes at me)
TTITLE6=Piano Singalong - Maybe It's Because I'm A londoner
TTITLE7=Piano Singalong - On Mother Kelly's Doorstep
TTITLE8=Piano Singalong - Pack Up Your Troubles
TTITLE9=Piano Singalong - Powder Your Face With Sunshine
TTITLE10=Piano Singalong - Que Sera Sera
TTITLE11=Piano Singalong - Roll Out The Barrel
TTITLE12=Piano Singalong - Shine On Harvest Moon
TTITLE13=Piano Singalong - Show Me The Way To Go Home
TTITLE14=Piano Singalong - Side By Side
TTITLE15=Piano Singalong - The Lambeth Walk
TTITLE16=Piano Singalong - The Sun Has Got His Hat On
TTITLE17=Piano Singalong - The Trail Of The Lonesome Pine
TTITLE18=Piano Singalong - The White Cliffs Of Dover
TTITLE19=Piano Singalong - Tiptoe Through The Tulips
TTITLE20=Piano Singalong - Underneath The Arches
TTITLE21=Piano Singalong - We'll Meet Again
TTITLE22=Piano Singalong - We're Gonna Hang Out The Washing On The Siegfried Line
TTITLE23=Piano Singalong - When The Red Red Robin Comes Bob Bob Bobbin' Along
TTITLE24=Piano Singalong - When You're Smiling
TTITLE25=Piano Singalong - Wish Me Luck As You Wave Me Goodbye
TTITLE26=Piano Singalong - Yes Sir That's My Baby
TTITLE27=Piano Singalong - You Are My Sunshine
TTITLE28=Piano Singalong - You Made Me Love You
TTITLE29=Piano Singalong - You Must Have Been A Beautiful Baby
EXTD=
EXTT0=
EXTT1=
EXTT2=
EXTT3=
EXTT4=
EXTT5=
EXTT6=
EXTT7=
EXTT8=
EXTT9=
EXTT10=
EXTT11=
EXTT12=
EXTT13=
EXTT14=
EXTT15=
EXTT16=
EXTT17=
EXTT18=
EXTT19=
EXTT20=
EXTT21=
EXTT22=
EXTT23=
EXTT24=
EXTT25=
EXTT26=
EXTT27=
EXTT28=
EXTT29=
PLAYORDER=
